%TF.GenerationSoftware,KiCad,Pcbnew,9.0.6+dfsg-1*%
%TF.CreationDate,2025-12-17T11:12:38+09:00*%
%TF.ProjectId,minimidi,6d696e69-6d69-4646-992e-6b696361645f,rev?*%
%TF.SameCoordinates,Original*%
%TF.FileFunction,Soldermask,Bot*%
%TF.FilePolarity,Negative*%
%FSLAX46Y46*%
G04 Gerber Fmt 4.6, Leading zero omitted, Abs format (unit mm)*
G04 Created by KiCad (PCBNEW 9.0.6+dfsg-1) date 2025-12-17 11:12:38*
%MOMM*%
%LPD*%
G01*
G04 APERTURE LIST*
G04 Aperture macros list*
%AMRoundRect*
0 Rectangle with rounded corners*
0 $1 Rounding radius*
0 $2 $3 $4 $5 $6 $7 $8 $9 X,Y pos of 4 corners*
0 Add a 4 corners polygon primitive as box body*
4,1,4,$2,$3,$4,$5,$6,$7,$8,$9,$2,$3,0*
0 Add four circle primitives for the rounded corners*
1,1,$1+$1,$2,$3*
1,1,$1+$1,$4,$5*
1,1,$1+$1,$6,$7*
1,1,$1+$1,$8,$9*
0 Add four rect primitives between the rounded corners*
20,1,$1+$1,$2,$3,$4,$5,0*
20,1,$1+$1,$4,$5,$6,$7,0*
20,1,$1+$1,$6,$7,$8,$9,0*
20,1,$1+$1,$8,$9,$2,$3,0*%
%AMFreePoly0*
4,1,37,0.603843,0.796157,0.639018,0.796157,0.711114,0.766294,0.766294,0.711114,0.796157,0.639018,0.796157,0.603843,0.800000,0.600000,0.800000,-0.600000,0.796157,-0.603843,0.796157,-0.639018,0.766294,-0.711114,0.711114,-0.766294,0.639018,-0.796157,0.603843,-0.796157,0.600000,-0.800000,0.000000,-0.800000,0.000000,-0.796148,-0.078414,-0.796148,-0.232228,-0.765552,-0.377117,-0.705537,
-0.507515,-0.618408,-0.618408,-0.507515,-0.705537,-0.377117,-0.765552,-0.232228,-0.796148,-0.078414,-0.796148,0.078414,-0.765552,0.232228,-0.705537,0.377117,-0.618408,0.507515,-0.507515,0.618408,-0.377117,0.705537,-0.232228,0.765552,-0.078414,0.796148,0.000000,0.796148,0.000000,0.800000,0.600000,0.800000,0.603843,0.796157,0.603843,0.796157,$1*%
%AMFreePoly1*
4,1,37,0.000000,0.796148,0.078414,0.796148,0.232228,0.765552,0.377117,0.705537,0.507515,0.618408,0.618408,0.507515,0.705537,0.377117,0.765552,0.232228,0.796148,0.078414,0.796148,-0.078414,0.765552,-0.232228,0.705537,-0.377117,0.618408,-0.507515,0.507515,-0.618408,0.377117,-0.705537,0.232228,-0.765552,0.078414,-0.796148,0.000000,-0.796148,0.000000,-0.800000,-0.600000,-0.800000,
-0.603843,-0.796157,-0.639018,-0.796157,-0.711114,-0.766294,-0.766294,-0.711114,-0.796157,-0.639018,-0.796157,-0.603843,-0.800000,-0.600000,-0.800000,0.600000,-0.796157,0.603843,-0.796157,0.639018,-0.766294,0.711114,-0.711114,0.766294,-0.639018,0.796157,-0.603843,0.796157,-0.600000,0.800000,0.000000,0.800000,0.000000,0.796148,0.000000,0.796148,$1*%
G04 Aperture macros list end*
%ADD10C,1.700000*%
%ADD11C,4.000000*%
%ADD12C,2.200000*%
%ADD13O,2.200000X1.600000*%
%ADD14C,2.100000*%
%ADD15R,2.000000X2.000000*%
%ADD16C,2.000000*%
%ADD17R,3.200000X2.000000*%
%ADD18R,1.700000X1.700000*%
%ADD19RoundRect,0.200000X-0.600000X-0.600000X0.600000X-0.600000X0.600000X0.600000X-0.600000X0.600000X0*%
%ADD20C,1.600000*%
%ADD21FreePoly0,0.000000*%
%ADD22FreePoly1,0.000000*%
G04 APERTURE END LIST*
D10*
%TO.C,SW28*%
X75685797Y-44364393D03*
D11*
X80765797Y-44364393D03*
D10*
X85845797Y-44364393D03*
D12*
X83305797Y-39284393D03*
X76955797Y-41824393D03*
%TD*%
D10*
%TO.C,SW33*%
X133120921Y-63521370D03*
D11*
X138200921Y-63521370D03*
D10*
X143280921Y-63521370D03*
D12*
X140740921Y-58441370D03*
X134390921Y-60981370D03*
%TD*%
D10*
%TO.C,SW24*%
X267540000Y-134540000D03*
D11*
X272620000Y-134540000D03*
D10*
X277700000Y-134540000D03*
D12*
X275160000Y-129460000D03*
X268810000Y-132000000D03*
%TD*%
D10*
%TO.C,SW13*%
X152500000Y-134580000D03*
D11*
X157580000Y-134580000D03*
D10*
X162660000Y-134580000D03*
D12*
X160120000Y-129500000D03*
X153770000Y-132040000D03*
%TD*%
D10*
%TO.C,SW32*%
X113980906Y-63517029D03*
D11*
X119060906Y-63517029D03*
D10*
X124140906Y-63517029D03*
D12*
X121600906Y-58437029D03*
X115250906Y-60977029D03*
%TD*%
D10*
%TO.C,SW12*%
X133420000Y-134540000D03*
D11*
X138500000Y-134540000D03*
D10*
X143580000Y-134540000D03*
D12*
X141040000Y-129460000D03*
X134690000Y-132000000D03*
%TD*%
D10*
%TO.C,SW31*%
X113976983Y-44365590D03*
D11*
X119056983Y-44365590D03*
D10*
X124136983Y-44365590D03*
D12*
X121596983Y-39285590D03*
X115246983Y-41825590D03*
%TD*%
D10*
%TO.C,SW19*%
X219230000Y-99500000D03*
D11*
X224310000Y-99500000D03*
D10*
X229390000Y-99500000D03*
D12*
X226850000Y-94420000D03*
X220500000Y-96960000D03*
%TD*%
D13*
%TO.C,SW25*%
X230500000Y-47000000D03*
D14*
X235000000Y-47000000D03*
D15*
X227500000Y-44500000D03*
D16*
X227500000Y-49500000D03*
X227500000Y-47000000D03*
D17*
X235000000Y-41400000D03*
X235000000Y-52600000D03*
D16*
X242000000Y-49500000D03*
X242000000Y-44500000D03*
%TD*%
D10*
%TO.C,SW20*%
X229230000Y-134580000D03*
D11*
X234310000Y-134580000D03*
D10*
X239390000Y-134580000D03*
D12*
X236850000Y-129500000D03*
X230500000Y-132040000D03*
%TD*%
D10*
%TO.C,SW30*%
X94827134Y-44334653D03*
D11*
X99907134Y-44334653D03*
D10*
X104987134Y-44334653D03*
D12*
X102447134Y-39254653D03*
X96097134Y-41794653D03*
%TD*%
D18*
%TO.C,J1*%
X185340000Y-42500000D03*
D10*
X187880000Y-42500000D03*
X190420000Y-42500000D03*
X192960000Y-42500000D03*
X195500000Y-42500000D03*
X198040000Y-42500000D03*
X200580000Y-42500000D03*
X203120000Y-42500000D03*
%TD*%
%TO.C,SW23*%
X257540000Y-99540000D03*
D11*
X262620000Y-99540000D03*
D10*
X267700000Y-99540000D03*
D12*
X265160000Y-94460000D03*
X258810000Y-97000000D03*
%TD*%
D10*
%TO.C,SW16*%
X182350000Y-99580000D03*
D11*
X187430000Y-99580000D03*
D10*
X192510000Y-99580000D03*
D12*
X189970000Y-94500000D03*
X183620000Y-97040000D03*
%TD*%
D10*
%TO.C,SW17*%
X190730000Y-134580000D03*
D11*
X195810000Y-134580000D03*
D10*
X200890000Y-134580000D03*
D12*
X198350000Y-129500000D03*
X192000000Y-132040000D03*
%TD*%
D10*
%TO.C,SW6*%
X19500000Y-134540000D03*
D11*
X24580000Y-134540000D03*
D10*
X29660000Y-134540000D03*
D12*
X27120000Y-129460000D03*
X20770000Y-132000000D03*
%TD*%
D10*
%TO.C,SW21*%
X238230000Y-99540000D03*
D11*
X243310000Y-99540000D03*
D10*
X248390000Y-99540000D03*
D12*
X245850000Y-94460000D03*
X239500000Y-97000000D03*
%TD*%
D10*
%TO.C,SW27*%
X75650000Y-63460000D03*
D11*
X80730000Y-63460000D03*
D10*
X85810000Y-63460000D03*
D12*
X83270000Y-58380000D03*
X76920000Y-60920000D03*
%TD*%
D13*
%TO.C,SW26*%
X230500000Y-71000000D03*
D14*
X235000000Y-71000000D03*
D15*
X227500000Y-68500000D03*
D16*
X227500000Y-73500000D03*
X227500000Y-71000000D03*
D17*
X235000000Y-65400000D03*
X235000000Y-76600000D03*
D16*
X242000000Y-73500000D03*
X242000000Y-68500000D03*
%TD*%
D10*
%TO.C,SW10*%
X95350000Y-134580000D03*
D11*
X100430000Y-134580000D03*
D10*
X105510000Y-134580000D03*
D12*
X102970000Y-129500000D03*
X96620000Y-132040000D03*
%TD*%
D10*
%TO.C,SW3*%
X85540000Y-99540000D03*
D11*
X90620000Y-99540000D03*
D10*
X95700000Y-99540000D03*
D12*
X93160000Y-94460000D03*
X86810000Y-97000000D03*
%TD*%
D10*
%TO.C,SW34*%
X133122481Y-44388807D03*
D11*
X138202481Y-44388807D03*
D10*
X143282481Y-44388807D03*
D12*
X140742481Y-39308807D03*
X134392481Y-41848807D03*
%TD*%
D10*
%TO.C,SW14*%
X163000000Y-99620000D03*
D11*
X168080000Y-99620000D03*
D10*
X173160000Y-99620000D03*
D12*
X170620000Y-94540000D03*
X164270000Y-97080000D03*
%TD*%
D10*
%TO.C,SW11*%
X114420000Y-134540000D03*
D11*
X119500000Y-134540000D03*
D10*
X124580000Y-134540000D03*
D12*
X122040000Y-129460000D03*
X115690000Y-132000000D03*
%TD*%
D10*
%TO.C,SW36*%
X152269619Y-63559177D03*
D11*
X157349619Y-63559177D03*
D10*
X162429619Y-63559177D03*
D12*
X159889619Y-58479177D03*
X153539619Y-61019177D03*
%TD*%
D10*
%TO.C,SW18*%
X210000000Y-134580000D03*
D11*
X215080000Y-134580000D03*
D10*
X220160000Y-134580000D03*
D12*
X217620000Y-129500000D03*
X211270000Y-132040000D03*
%TD*%
D10*
%TO.C,SW35*%
X22920000Y-44500000D03*
D11*
X28000000Y-44500000D03*
D10*
X33080000Y-44500000D03*
D12*
X30540000Y-39420000D03*
X24190000Y-41960000D03*
%TD*%
D19*
%TO.C,A1*%
X257220000Y-32400000D03*
D20*
X257220000Y-34940000D03*
D21*
X257220000Y-37480000D03*
D20*
X257220000Y-40020000D03*
X257220000Y-42560000D03*
X257220000Y-45100000D03*
X257220000Y-47640000D03*
D21*
X257220000Y-50180000D03*
D20*
X257220000Y-52720000D03*
X257220000Y-55260000D03*
X257220000Y-57800000D03*
X257220000Y-60340000D03*
D21*
X257220000Y-62880000D03*
D20*
X257220000Y-65420000D03*
X257220000Y-67960000D03*
X257220000Y-70500000D03*
X257220000Y-73040000D03*
D21*
X257220000Y-75580000D03*
D20*
X257220000Y-78120000D03*
X257220000Y-80660000D03*
X275000000Y-80660000D03*
X275000000Y-78120000D03*
D22*
X275000000Y-75580000D03*
D20*
X275000000Y-73040000D03*
X275000000Y-70500000D03*
X275000000Y-67960000D03*
X275000000Y-65420000D03*
D22*
X275000000Y-62880000D03*
D20*
X275000000Y-60340000D03*
X275000000Y-57800000D03*
X275000000Y-55260000D03*
X275000000Y-52720000D03*
D22*
X275000000Y-50180000D03*
D20*
X275000000Y-47640000D03*
X275000000Y-45100000D03*
X275000000Y-42560000D03*
X275000000Y-40020000D03*
D22*
X275000000Y-37480000D03*
D20*
X275000000Y-34940000D03*
X275000000Y-32400000D03*
%TD*%
D10*
%TO.C,SW1*%
X29340000Y-99500000D03*
D11*
X34420000Y-99500000D03*
D10*
X39500000Y-99500000D03*
D12*
X36960000Y-94420000D03*
X30610000Y-96960000D03*
%TD*%
D10*
%TO.C,SW8*%
X57420000Y-134540000D03*
D11*
X62500000Y-134540000D03*
D10*
X67580000Y-134540000D03*
D12*
X65040000Y-129460000D03*
X58690000Y-132000000D03*
%TD*%
D10*
%TO.C,SW9*%
X76420000Y-134540000D03*
D11*
X81500000Y-134540000D03*
D10*
X86580000Y-134540000D03*
D12*
X84040000Y-129460000D03*
X77690000Y-132000000D03*
%TD*%
D10*
%TO.C,SW15*%
X171500000Y-134580000D03*
D11*
X176580000Y-134580000D03*
D10*
X181660000Y-134580000D03*
D12*
X179120000Y-129500000D03*
X172770000Y-132040000D03*
%TD*%
D10*
%TO.C,SW7*%
X38500000Y-134540000D03*
D11*
X43580000Y-134540000D03*
D10*
X48660000Y-134540000D03*
D12*
X46120000Y-129460000D03*
X39770000Y-132000000D03*
%TD*%
D10*
%TO.C,SW22*%
X248420000Y-134580000D03*
D11*
X253500000Y-134580000D03*
D10*
X258580000Y-134580000D03*
D12*
X256040000Y-129500000D03*
X249690000Y-132040000D03*
%TD*%
D10*
%TO.C,SW5*%
X123460000Y-99540000D03*
D11*
X128540000Y-99540000D03*
D10*
X133620000Y-99540000D03*
D12*
X131080000Y-94460000D03*
X124730000Y-97000000D03*
%TD*%
D10*
%TO.C,SW37*%
X152254967Y-44409948D03*
D11*
X157334967Y-44409948D03*
D10*
X162414967Y-44409948D03*
D12*
X159874967Y-39329948D03*
X153524967Y-41869948D03*
%TD*%
D10*
%TO.C,SW4*%
X104460000Y-99540000D03*
D11*
X109540000Y-99540000D03*
D10*
X114620000Y-99540000D03*
D12*
X112080000Y-94460000D03*
X105730000Y-97000000D03*
%TD*%
D10*
%TO.C,SW2*%
X48540000Y-99540000D03*
D11*
X53620000Y-99540000D03*
D10*
X58700000Y-99540000D03*
D12*
X56160000Y-94460000D03*
X49810000Y-97000000D03*
%TD*%
D10*
%TO.C,SW29*%
X94839626Y-63463737D03*
D11*
X99919626Y-63463737D03*
D10*
X104999626Y-63463737D03*
D12*
X102459626Y-58383737D03*
X96109626Y-60923737D03*
%TD*%
M02*
