M48
; DRILL file {KiCad 9.0.6+dfsg-1} date 2025-12-17T11:12:08+0900
; FORMAT={-:-/ absolute / metric / decimal}
; #@! TF.CreationDate,2025-12-17T11:12:08+09:00
; #@! TF.GenerationSoftware,Kicad,Pcbnew,9.0.6+dfsg-1
; #@! TF.FileFunction,Plated,1,2,PTH
FMAT,2
METRIC
; #@! TA.AperFunction,Plated,PTH,ViaDrill
T1C0.300
; #@! TA.AperFunction,Plated,PTH,ComponentDrill
T2C1.000
; #@! TA.AperFunction,Plated,PTH,ComponentDrill
T3C1.500
%
G90
G05
T1
X106.5Y-82.5
X114.0Y-89.5
X116.5Y-88.5
X118.5Y-82.5
X119.0Y-88.5
X120.0Y-85.0
X121.0Y-78.0
X124.5Y-82.5
X125.0Y-87.0
X126.5Y-90.0
X128.1Y-107.5
X134.5Y-114.0
X134.5Y-119.5
X135.5Y-111.5
X136.0Y-108.5
X137.3Y-71.5
X138.0Y-110.0
X138.0Y-114.0
X139.5Y-74.5
X143.5Y-115.0
X146.5Y-113.5
X148.0Y-87.0
X149.0Y-93.0
X149.5Y-91.0
X151.5Y-89.5
X154.5Y-72.5
X156.5Y-103.0
X157.05Y-71.45
X159.5Y-98.5
X164.0Y-115.5
X166.0Y-103.0
X167.0Y-84.0
X167.0Y-111.0
X167.0Y-116.5
X167.3Y-107.5
X168.0Y-90.5
X168.7Y-107.5
X170.5Y-86.0
X170.5Y-88.5
X174.5Y-79.5
X174.5Y-112.0
X177.5Y-76.5
X179.5Y-79.5
X182.5Y-76.5
X183.5Y-109.0
X185.0Y-111.5
X197.5Y-143.0
X201.0Y-143.0
X202.5Y-49.5
X204.0Y-48.0
X204.5Y-47.0
X206.5Y-45.5
X208.0Y-44.5
X212.0Y-49.5
X213.0Y-122.0
X213.5Y-48.0
X215.0Y-47.0
X216.0Y-45.5
X217.0Y-44.5
X218.5Y-123.5
X220.0Y-76.5
X220.0Y-79.5
X224.5Y-76.0
X224.5Y-79.0
X227.0Y-64.0
X228.0Y-63.5
X228.5Y-61.0
X229.0Y-62.5
X230.0Y-39.0
X230.5Y-61.5
X232.5Y-37.5
X232.5Y-62.5
X232.5Y-68.0
X233.5Y-67.5
X234.0Y-36.0
X234.0Y-61.0
X235.0Y-39.0
X237.5Y-37.5
X238.5Y-74.5
X239.5Y-74.0
X240.5Y-36.0
X240.5Y-70.5
X240.5Y-76.5
X241.5Y-76.0
X245.0Y-72.0
X245.5Y-70.0
X246.5Y-30.5
X247.0Y-58.0
X247.5Y-62.5
X250.0Y-64.0
X250.5Y-77.5
X251.0Y-54.5
X251.0Y-56.5
X251.0Y-62.5
X251.0Y-83.0
X251.5Y-68.5
X252.0Y-78.0
X252.0Y-80.0
X252.0Y-82.0
X252.0Y-85.5
X253.0Y-68.5
X253.0Y-72.0
X254.0Y-72.0
X261.5Y-82.0
X265.0Y-33.5
X270.0Y-85.5
X271.0Y-90.5
X271.5Y-69.0
X272.5Y-99.5
X272.5Y-105.0
X274.0Y-114.5
X274.5Y-96.0
X276.5Y-99.0
X276.5Y-112.0
X280.5Y-40.0
X282.0Y-69.0
T2
X185.34Y-42.5
X187.88Y-42.5
X190.42Y-42.5
X192.96Y-42.5
X195.5Y-42.5
X198.04Y-42.5
X200.58Y-42.5
X203.12Y-42.5
X227.5Y-44.5
X227.5Y-47.0
X227.5Y-49.5
X227.5Y-68.5
X227.5Y-71.0
X227.5Y-73.5
X242.0Y-44.5
X242.0Y-49.5
X242.0Y-68.5
X242.0Y-73.5
X257.22Y-32.4
X257.22Y-34.94
X257.22Y-37.48
X257.22Y-40.02
X257.22Y-42.56
X257.22Y-45.1
X257.22Y-47.64
X257.22Y-50.18
X257.22Y-52.72
X257.22Y-55.26
X257.22Y-57.8
X257.22Y-60.34
X257.22Y-62.88
X257.22Y-65.42
X257.22Y-67.96
X257.22Y-70.5
X257.22Y-73.04
X257.22Y-75.58
X257.22Y-78.12
X257.22Y-80.66
X275.0Y-32.4
X275.0Y-34.94
X275.0Y-37.48
X275.0Y-40.02
X275.0Y-42.56
X275.0Y-45.1
X275.0Y-47.64
X275.0Y-50.18
X275.0Y-52.72
X275.0Y-55.26
X275.0Y-57.8
X275.0Y-60.34
X275.0Y-62.88
X275.0Y-65.42
X275.0Y-67.96
X275.0Y-70.5
X275.0Y-73.04
X275.0Y-75.58
X275.0Y-78.12
X275.0Y-80.66
T3
X20.77Y-132.0
X24.19Y-41.96
X27.12Y-129.46
X30.54Y-39.42
X30.61Y-96.96
X36.96Y-94.42
X39.77Y-132.0
X46.12Y-129.46
X49.81Y-97.0
X56.16Y-94.46
X58.69Y-132.0
X65.04Y-129.46
X76.92Y-60.92
X76.956Y-41.824
X77.69Y-132.0
X83.27Y-58.38
X83.306Y-39.284
X84.04Y-129.46
X86.81Y-97.0
X93.16Y-94.46
X96.097Y-41.795
X96.11Y-60.924
X96.62Y-132.04
X102.447Y-39.255
X102.46Y-58.384
X102.97Y-129.5
X105.73Y-97.0
X112.08Y-94.46
X115.247Y-41.826
X115.251Y-60.977
X115.69Y-132.0
X121.597Y-39.286
X121.601Y-58.437
X122.04Y-129.46
X124.73Y-97.0
X131.08Y-94.46
X134.391Y-60.981
X134.392Y-41.849
X134.69Y-132.0
X140.741Y-58.441
X140.742Y-39.309
X141.04Y-129.46
X153.525Y-41.87
X153.54Y-61.019
X153.77Y-132.04
X159.875Y-39.33
X159.89Y-58.479
X160.12Y-129.5
X164.27Y-97.08
X170.62Y-94.54
X172.77Y-132.04
X179.12Y-129.5
X183.62Y-97.04
X189.97Y-94.5
X192.0Y-132.04
X198.35Y-129.5
X211.27Y-132.04
X217.62Y-129.5
X220.5Y-96.96
X226.85Y-94.42
X230.5Y-132.04
X236.85Y-129.5
X239.5Y-97.0
X245.85Y-94.46
X249.69Y-132.04
X256.04Y-129.5
X258.81Y-97.0
X265.16Y-94.46
X268.81Y-132.0
X275.16Y-129.46
T3
G00X234.35Y-41.4
M15
G01X235.65Y-41.4
M16
G05
G00X234.35Y-52.6
M15
G01X235.65Y-52.6
M16
G05
G00X234.35Y-65.4
M15
G01X235.65Y-65.4
M16
G05
G00X234.35Y-76.6
M15
G01X235.65Y-76.6
M16
G05
M30
