%TF.GenerationSoftware,KiCad,Pcbnew,9.0.6+dfsg-1*%
%TF.CreationDate,2025-12-17T11:12:38+09:00*%
%TF.ProjectId,minimidi,6d696e69-6d69-4646-992e-6b696361645f,rev?*%
%TF.SameCoordinates,Original*%
%TF.FileFunction,Paste,Top*%
%TF.FilePolarity,Positive*%
%FSLAX46Y46*%
G04 Gerber Fmt 4.6, Leading zero omitted, Abs format (unit mm)*
G04 Created by KiCad (PCBNEW 9.0.6+dfsg-1) date 2025-12-17 11:12:38*
%MOMM*%
%LPD*%
G01*
G04 APERTURE LIST*
G04 Aperture macros list*
%AMRoundRect*
0 Rectangle with rounded corners*
0 $1 Rounding radius*
0 $2 $3 $4 $5 $6 $7 $8 $9 X,Y pos of 4 corners*
0 Add a 4 corners polygon primitive as box body*
4,1,4,$2,$3,$4,$5,$6,$7,$8,$9,$2,$3,0*
0 Add four circle primitives for the rounded corners*
1,1,$1+$1,$2,$3*
1,1,$1+$1,$4,$5*
1,1,$1+$1,$6,$7*
1,1,$1+$1,$8,$9*
0 Add four rect primitives between the rounded corners*
20,1,$1+$1,$2,$3,$4,$5,0*
20,1,$1+$1,$4,$5,$6,$7,0*
20,1,$1+$1,$6,$7,$8,$9,0*
20,1,$1+$1,$8,$9,$2,$3,0*%
G04 Aperture macros list end*
%ADD10RoundRect,0.150000X-0.150000X-0.200000X0.150000X-0.200000X0.150000X0.200000X-0.150000X0.200000X0*%
%ADD11RoundRect,0.150000X0.150000X0.200000X-0.150000X0.200000X-0.150000X-0.200000X0.150000X-0.200000X0*%
G04 APERTURE END LIST*
D10*
%TO.C,D21*%
X244200000Y-107500000D03*
X242800000Y-107500000D03*
%TD*%
%TO.C,D3*%
X91200000Y-107500000D03*
X89800000Y-107500000D03*
%TD*%
%TO.C,D22*%
X250200000Y-126500000D03*
X248800000Y-126500000D03*
%TD*%
D11*
%TO.C,D29*%
X99300000Y-71500000D03*
X100700000Y-71500000D03*
%TD*%
%TO.C,D35*%
X157100000Y-71500000D03*
X158500000Y-71500000D03*
%TD*%
D10*
%TO.C,D5*%
X129500000Y-107500000D03*
X128100000Y-107500000D03*
%TD*%
%TO.C,D25*%
X248700000Y-44500000D03*
X247300000Y-44500000D03*
%TD*%
%TO.C,D15*%
X172900000Y-126500000D03*
X171500000Y-126500000D03*
%TD*%
%TO.C,D17*%
X192100000Y-126500000D03*
X190700000Y-126500000D03*
%TD*%
D11*
%TO.C,D30*%
X99100000Y-52500000D03*
X100500000Y-52500000D03*
%TD*%
D10*
%TO.C,D24*%
X269200000Y-126500000D03*
X267800000Y-126500000D03*
%TD*%
%TO.C,D4*%
X110200000Y-107500000D03*
X108800000Y-107500000D03*
%TD*%
D11*
%TO.C,D34*%
X137800000Y-52500000D03*
X139200000Y-52500000D03*
%TD*%
D10*
%TO.C,D26*%
X248700000Y-68500000D03*
X247300000Y-68500000D03*
%TD*%
%TO.C,D19*%
X225000000Y-107500000D03*
X223600000Y-107500000D03*
%TD*%
%TO.C,D6*%
X22500000Y-126500000D03*
X21100000Y-126500000D03*
%TD*%
D11*
%TO.C,D36*%
X157100000Y-52500000D03*
X158500000Y-52500000D03*
%TD*%
D10*
%TO.C,D10*%
X97700000Y-126500000D03*
X96300000Y-126500000D03*
%TD*%
D11*
%TO.C,D28*%
X80300000Y-52500000D03*
X81700000Y-52500000D03*
%TD*%
D10*
%TO.C,D2*%
X54000000Y-107500000D03*
X52600000Y-107500000D03*
%TD*%
%TO.C,D12*%
X135500000Y-126500000D03*
X134100000Y-126500000D03*
%TD*%
%TO.C,D20*%
X230400000Y-126500000D03*
X229000000Y-126500000D03*
%TD*%
D11*
%TO.C,D31*%
X118600000Y-52500000D03*
X120000000Y-52500000D03*
%TD*%
D10*
%TO.C,D23*%
X263200000Y-107500000D03*
X261800000Y-107500000D03*
%TD*%
%TO.C,D18*%
X211700000Y-126500000D03*
X210300000Y-126500000D03*
%TD*%
D11*
%TO.C,D33*%
X137300000Y-71500000D03*
X138700000Y-71500000D03*
%TD*%
%TO.C,D32*%
X118300000Y-71500000D03*
X119700000Y-71500000D03*
%TD*%
D10*
%TO.C,D11*%
X116200000Y-126500000D03*
X114800000Y-126500000D03*
%TD*%
%TO.C,D13*%
X154700000Y-126500000D03*
X153300000Y-126500000D03*
%TD*%
%TO.C,D9*%
X78500000Y-126500000D03*
X77100000Y-126500000D03*
%TD*%
%TO.C,D14*%
X168700000Y-107500000D03*
X167300000Y-107500000D03*
%TD*%
D11*
%TO.C,D27*%
X80500000Y-71500000D03*
X81900000Y-71500000D03*
%TD*%
D10*
%TO.C,D16*%
X188500000Y-107500000D03*
X187100000Y-107500000D03*
%TD*%
%TO.C,D8*%
X59900000Y-126500000D03*
X58500000Y-126500000D03*
%TD*%
%TO.C,D1*%
X34500000Y-107500000D03*
X33100000Y-107500000D03*
%TD*%
%TO.C,D7*%
X40900000Y-126500000D03*
X39500000Y-126500000D03*
%TD*%
M02*
