M48
; DRILL file {KiCad 9.0.6+dfsg-1} date 2025-12-17T11:12:08+0900
; FORMAT={-:-/ absolute / metric / decimal}
; #@! TF.CreationDate,2025-12-17T11:12:08+09:00
; #@! TF.GenerationSoftware,Kicad,Pcbnew,9.0.6+dfsg-1
; #@! TF.FileFunction,NonPlated,1,2,NPTH
FMAT,2
METRIC
; #@! TA.AperFunction,NonPlated,NPTH,ComponentDrill
T1C1.600
; #@! TA.AperFunction,NonPlated,NPTH,ComponentDrill
T2C1.700
; #@! TA.AperFunction,NonPlated,NPTH,ComponentDrill
T3C2.100
; #@! TA.AperFunction,NonPlated,NPTH,ComponentDrill
T4C4.000
%
G90
G05
T2
X19.5Y-134.54
X22.92Y-44.5
X29.34Y-99.5
X29.66Y-134.54
X33.08Y-44.5
X38.5Y-134.54
X39.5Y-99.5
X48.54Y-99.54
X48.66Y-134.54
X57.42Y-134.54
X58.7Y-99.54
X67.58Y-134.54
X75.65Y-63.46
X75.686Y-44.364
X76.42Y-134.54
X85.54Y-99.54
X85.81Y-63.46
X85.846Y-44.364
X86.58Y-134.54
X94.827Y-44.335
X94.84Y-63.464
X95.35Y-134.58
X95.7Y-99.54
X104.46Y-99.54
X104.987Y-44.335
X105.0Y-63.464
X105.51Y-134.58
X113.977Y-44.366
X113.981Y-63.517
X114.42Y-134.54
X114.62Y-99.54
X123.46Y-99.54
X124.137Y-44.366
X124.141Y-63.517
X124.58Y-134.54
X133.121Y-63.521
X133.122Y-44.389
X133.42Y-134.54
X133.62Y-99.54
X143.281Y-63.521
X143.282Y-44.389
X143.58Y-134.54
X152.255Y-44.41
X152.27Y-63.559
X152.5Y-134.58
X162.415Y-44.41
X162.43Y-63.559
X162.66Y-134.58
X163.0Y-99.62
X171.5Y-134.58
X173.16Y-99.62
X181.66Y-134.58
X182.35Y-99.58
X190.73Y-134.58
X192.51Y-99.58
X200.89Y-134.58
X210.0Y-134.58
X219.23Y-99.5
X220.16Y-134.58
X229.23Y-134.58
X229.39Y-99.5
X238.23Y-99.54
X239.39Y-134.58
X248.39Y-99.54
X248.42Y-134.58
X257.54Y-99.54
X258.58Y-134.58
X267.54Y-134.54
X267.7Y-99.54
X277.7Y-134.54
T3
X235.0Y-47.0
X235.0Y-71.0
T4
X24.58Y-134.54
X28.0Y-44.5
X34.42Y-99.5
X43.58Y-134.54
X53.62Y-99.54
X62.5Y-134.54
X80.73Y-63.46
X80.766Y-44.364
X81.5Y-134.54
X90.62Y-99.54
X99.907Y-44.335
X99.92Y-63.464
X100.43Y-134.58
X109.54Y-99.54
X119.057Y-44.366
X119.061Y-63.517
X119.5Y-134.54
X128.54Y-99.54
X138.201Y-63.521
X138.202Y-44.389
X138.5Y-134.54
X157.335Y-44.41
X157.35Y-63.559
X157.58Y-134.58
X168.08Y-99.62
X176.58Y-134.58
X187.43Y-99.58
X195.81Y-134.58
X215.08Y-134.58
X224.31Y-99.5
X234.31Y-134.58
X243.31Y-99.54
X253.5Y-134.58
X262.62Y-99.54
X272.62Y-134.54
T1
G00X230.2Y-47.0
M15
G01X230.8Y-47.0
M16
G05
G00X230.2Y-71.0
M15
G01X230.8Y-71.0
M16
G05
M30
